<svg width="30" height="30" viewBox="0 0 30 30" fill="none" xmlns="http://www.w3.org/2000/svg"><path d="M0 15C0 6.71573 6.71573 0 15 0C23.2843 0 30 6.71573 30 15C30 23.2843 23.2843 30 15 30C6.71573 30 0 23.2843 0 15Z" fill="#4C6C91"></path><path d="M15.7848 19.9226C15.7848 19.9226 16.0736 19.8911 16.2215 19.7351C16.3568 19.5922 16.3521 19.3226 16.3521 19.3226C16.3521 19.3226 16.3341 18.0636 16.9297 17.8777C17.5166 17.6949 18.2702 19.0952 19.07 19.6337C19.6741 20.0408 20.1327 19.9517 20.1327 19.9517L22.2699 19.9226C22.2699 19.9226 23.3874 19.855 22.8576 18.9923C22.8137 18.9216 22.5485 18.354 21.269 17.1879C19.9284 15.9673 20.1084 16.1647 21.7221 14.053C22.705 12.7672 23.0978 11.9821 22.975 11.6464C22.8584 11.3253 22.1353 11.4106 22.1353 11.4106L19.7297 11.4252C19.7297 11.4252 19.5513 11.4014 19.419 11.4789C19.2899 11.555 19.2061 11.7324 19.2061 11.7324C19.2061 11.7324 18.8258 12.7272 18.3179 13.5737C17.2466 15.3589 16.8185 15.4534 16.6433 15.3428C16.2355 15.0839 16.3373 14.3042 16.3373 13.7504C16.3373 12.0197 16.6049 11.2984 15.8169 11.1118C15.5555 11.0495 15.363 11.0088 14.6939 11.0019C13.8354 10.9935 13.1092 11.005 12.6976 11.2024C12.4237 11.3338 12.2124 11.6272 12.3415 11.6441C12.5004 11.6648 12.8604 11.7394 13.0513 11.9944C13.2978 12.3239 13.2892 13.0629 13.2892 13.0629C13.2892 13.0629 13.4308 15.1 12.9582 15.3528C12.6342 15.5264 12.1897 15.1723 11.2342 13.5522C10.7451 12.7226 10.3757 11.8054 10.3757 11.8054C10.3757 11.8054 10.3045 11.6341 10.177 11.5419C10.0228 11.4306 9.80759 11.396 9.80759 11.396L7.52173 11.4106C7.52173 11.4106 7.17818 11.4198 7.05219 11.5665C6.94029 11.6963 7.04358 11.966 7.04358 11.966C7.04358 11.966 8.8333 16.0764 10.8601 18.1481C12.7187 20.047 14.8285 19.9226 14.8285 19.9226H15.7848Z" fill="white"></path></svg>
